<?xml version="1.0" encoding="utf-8"?>
<!-- Generator: Adobe Illustrator 24.0.1, SVG Export Plug-In . SVG Version: 6.00 Build 0)  -->
<svg version="1.1" xmlns="http://www.w3.org/2000/svg" xmlns:xlink="http://www.w3.org/1999/xlink" x="0px" y="0px"
	 viewBox="0 0 1280 1024" style="enable-background:new 0 0 1280 1024;" xml:space="preserve">
<style type="text/css">
	.st0{fill:#8E8E8E;stroke:#000000;stroke-miterlimit:10;}
	.st1{fill:#8E8E8E;}
	.st2{fill:#FFFFFF;}
	.st3{fill:#FFFFFF;stroke:#000000;stroke-miterlimit:10;}
	.st4{fill:#0A0101;}
	.st5{fill:none;stroke:#000000;stroke-width:2;stroke-miterlimit:10;}
	.st6{stroke:#000000;stroke-miterlimit:10;}
	.st7{fill:none;stroke:#0A0101;stroke-width:2;stroke-miterlimit:10;}
	.st8{fill:#C6C6C6;}
</style>
<g id="Color_base">
	<path d="M623.57,673.14c-6.43,0-6.45,10,0,10C630.01,683.14,630.02,673.14,623.57,673.14z"/>
	<path class="st0" d="M376.46,298.71l30.89,566.23c0.07,1.36,0.65,2.65,1.62,3.61l5.25,5.23c0.21,0.21,0.4,0.44,0.58,0.68
		c22.17,30.97,47.4,57.19,76.92,76.79c0.46,0.3,0.95,0.54,1.48,0.69l40.75,12.34c0.24,0.07,0.49,0.13,0.74,0.17l83.68,13.23
		c0.25,0.04,0.51,0.06,0.76,0.07l20.56,0.38c0.21,0,0.42,0,0.63-0.02l48.18-4.63c0.33-0.03,0.67-0.09,0.99-0.19l53.37-15.24
		c0.6-0.17,1.17-0.45,1.68-0.81l43.6-30.98c0.32-0.23,0.61-0.48,0.87-0.77l118.57-129.44c0.11-0.12,0.21-0.24,0.31-0.37l25.62-33.41
		c0.44-0.57,0.76-1.22,0.95-1.91l6.2-22.71c0.29-1.07,0.26-2.21-0.11-3.26l-13.47-39.09c-0.04-0.11-0.07-0.23-0.11-0.34
		l-11.68-42.77c-0.18-0.66-0.24-1.35-0.17-2.03l4.4-41.97c0.02-0.2,0.05-0.39,0.09-0.59l8.26-38.31c0.08-0.38,0.12-0.76,0.12-1.15
		l0.06-17.35c0-0.53-0.07-1.05-0.22-1.56l-10.75-37.1c-0.03-0.1-0.06-0.2-0.09-0.29l-9.68-27.54c-0.14-0.41-0.24-0.83-0.28-1.26
		l-0.71-6.75c-0.02-0.22-0.03-0.44-0.03-0.65l0.62-42.84c0-0.17,0-0.33-0.02-0.5l-2.84-37.6c-0.02-0.25-0.05-0.49-0.1-0.73
		l-6.92-32.64c-0.06-0.28-0.14-0.55-0.24-0.81l-17.7-46.74c-0.13-0.36-0.31-0.7-0.51-1.02L845.56,261
		c-0.31-0.49-0.69-0.92-1.14-1.29l-61.67-50.99c-0.44-0.36-0.93-0.66-1.46-0.87l-61.9-24.92c-0.21-0.08-0.42-0.16-0.64-0.21
		l-47-12.52c-0.46-0.12-0.94-0.19-1.42-0.19h-65.76c-0.44,0-0.88,0.05-1.3,0.16c-31.13,0.77-59.07,3.13-82.98,16.83
		c-1.16,0.28-4.89-0.54-3.88,3.13l-2.8-1.21c-1.55-0.67-3.31-0.59-4.79,0.2l-74.67,39.98c-0.49,0.26-0.94,0.6-1.33,0.99
		l-31.79,32.28c-0.31,0.31-0.58,0.67-0.81,1.04l-36.46,61.05c-0.19,0.32-0.35,0.66-0.47,1.01l-3.26,9.31l-9.52,27.24
		c-0.08,0.23-0.15,0.47-0.2,0.72l-6.9,33.78c-0.05,0.26-0.09,0.52-0.1,0.78l-5.92,98.97c-0.04,0.68-0.21,1.35-0.49,1.98
		l-10.18,22.17c-0.08,0.18-0.16,0.37-0.22,0.56l-4,11.99c-0.1,0.31-0.18,0.64-0.23,0.97l-2.79,19.5c-0.04,0.26-0.06,0.52-0.06,0.78
		v19.21c0,0.43,0.05,0.85,0.15,1.27l4.18,17.71l8.96,36.96c0.13,0.53,0.18,1.08,0.15,1.62l-1.71,29.75
		c-0.03,0.45-0.11,0.89-0.24,1.31l-10.21,33.07l-11.25,33.58c-0.19,0.57-0.29,1.16-0.29,1.76l0,21.7c0,1.19,0.38,2.34,1.09,3.3
		l15.42,20.75c0.09,0.12,0.18,0.23,0.27,0.34l22.22,25.48l24.79,27.18l28.05,30.76c0.31,0.34,0.67,0.65,1.06,0.9l28.74,18.77
		c1.61,1.05,3.65,1.19,5.38,0.37l39.59-18.69c1.14-0.54,2.07-1.45,2.62-2.59l29.89-61.84c0.55-1.14,0.69-2.43,0.4-3.67
		L390.96,291.14"/>
	<ellipse class="st1" cx="470.54" cy="652.32" rx="47.55" ry="120.96"/>
	<ellipse class="st1" cx="452.4" cy="520" rx="37.28" ry="96.43"/>
	<ellipse class="st1" cx="491.57" cy="772.18" rx="107.14" ry="128.77"/>
	<ellipse class="st1" cx="393.35" cy="532.86" rx="21.77" ry="199.29"/>
	<ellipse class="st1" cx="431.57" cy="415.79" rx="60" ry="164.51"/>
	<ellipse class="st1" cx="412.4" cy="310.86" rx="32.25" ry="37.29"/>
	<ellipse class="st1" cx="379.46" cy="347.87" rx="13.89" ry="46.56"/>
	<ellipse class="st1" cx="440.36" cy="854.71" rx="39.21" ry="24.43"/>
	<ellipse class="st1" cx="432.54" cy="876.73" rx="10.39" ry="13.66"/>
</g>
<g id="Color_ojos">
</g>
<g id="color_boca">
	<path class="st2" d="M700.48,844c-0.77,1.27-2.12,2.19-4.05,2.21c-4.94,0.07-9.43,2.11-14.22,3.06c-4.82,0.96-9.66,1.77-14.48,2.76
		c-9.46,1.94-19.33,1.73-28.93,2.44c-4.9,0.36-9.29-0.41-14.11-0.96c-2.09-0.24-4.42-0.08-6.61-0.38c-0.54,0.26-1.1,0.5-1.69,0.67
		c-2.9,0.85-6.04,0.57-8.99,0.16c-8.13-1.13-15.89-3.5-24.12-4.33c-0.66-0.07-1.24-0.22-1.76-0.44c-0.06,0-0.11,0.01-0.17,0.01
		c-4.5,0.08-8-2.41-12.3-3.03c-4.54-0.66-8.26-0.51-12.51-2.58c-0.29-0.14-0.54-0.3-0.78-0.47l-2.94-0.02
		c5.29,14.13,6.81,30.45,6.17,48.02l5-0.75h4.43c12.53,15.37,34.03,22.35,64,21.44c28.29,0.59,49.69-6.5,63.76-21.76
		c15.18,6.82,5.15-23.78,13.28-46.02L700.48,844z"/>
	<path class="st3" d="M434.47,522.41l-16.3,13.66L406,551.91l-10.13,22.17l-3.67,15.66l-1.24,21.54V622l3.76,11.4l6.11,15.97
		l11.89,20.2l21.75,15.29c77.68,34,144.53-29.43,114.11-127.2c-40.73-0.97-78.03-7.65-111.35-37.01"/>
</g>
<g id="trazado_x5F_contorno">
	<g>
		<g>
			<path d="M941.16,720.05c-11.86-25.82-24.33-53.28-23.79-82.3c0.27-14.49,4.98-27.89,8.76-41.71c3.54-12.97,5.59-26.45,5.27-39.91
				c-0.32-13.45-3.03-26.7-8.55-38.99c-2.8-6.23-6.25-12.16-8.75-18.52c-2.6-6.58-4.03-13.55-4.63-20.59
				c-1.18-13.77,0.28-27.58,0.45-41.37c0.16-12.72-0.62-25.44-2.27-38.04c-6.54-49.93-26.64-97.79-57.88-137.3
				c-12.78-16.17-27.38-30.21-44.24-42.06c-15.38-10.81-32.07-19.63-49.41-26.86c-36.74-15.32-76.52-23.2-116.21-24.99
				c-40.3-1.82-81.19,2.7-119.82,14.44c-36.47,11.09-71.36,28.88-99.58,54.77c-17.67,16.21-32.4,36.15-44.46,56.8
				c-12.69,21.73-22.46,45.23-28.93,69.55c-6.47,24.32-9.68,49.57-9.27,74.74c0.23,13.81,1.67,27.66,0.33,41.46
				c-0.68,7.03-2.25,13.97-4.95,20.5c-2.61,6.32-6.05,12.25-8.79,18.51c-11.02,25.2-9.67,53.56-2.36,79.57
				c3.88,13.82,8.29,27.21,8.31,41.73c0.01,14.12-3.14,28-7.59,41.33c-4.48,13.45-10.31,26.39-16.22,39.25
				c-1.6,3.48,3.57,6.54,5.18,3.03c11.57-25.19,23.44-51.5,24.55-79.64c0.55-14.01-2.56-27.22-6.49-40.56
				c-3.93-13.34-7.06-26.7-7.46-40.66c-0.39-13.52,1.55-27.14,6.69-39.7c2.59-6.32,6.03-12.25,8.78-18.5
				c2.69-6.11,4.6-12.43,5.61-19.04c2.09-13.68,1.04-27.49,0.56-41.24c-0.45-12.67-0.07-25.35,1.24-37.96
				c5.18-49.7,24.51-97.94,54.9-137.58c12.89-16.82,27.78-31.62,45.08-43.88c15.41-10.92,32.16-19.96,49.62-27.14
				c36.7-15.11,76.37-22.67,115.96-23.96c39.68-1.29,79.71,3.61,117.63,15.49c35.29,11.05,69.27,28.44,96.39,53.87
				c17.51,16.42,31.97,36.59,43.73,57.44c12.38,21.94,21.69,45.56,27.67,70.03c5.99,24.51,8.4,49.64,7.45,74.84
				c-0.52,13.74-1.49,27.57,0.78,41.21c1.1,6.59,3.14,12.86,5.89,18.94c2.82,6.21,6.23,12.15,8.73,18.51
				c4.97,12.64,6.76,26.26,6.25,39.79c-0.53,13.98-3.83,27.31-7.76,40.67c-3.93,13.34-6.81,26.58-6.1,40.57
				c0.7,13.88,4.06,27.5,8.62,40.58c4.51,12.95,10.16,25.47,15.88,37.93C937.58,726.58,942.76,723.54,941.16,720.05L941.16,720.05z"
				/>
		</g>
	</g>
	<g>
		<g>
			<path d="M306.21,720.18c-9.94,27.6,9.64,53.42,27.08,72.79c20.98,23.31,42.25,46.35,63.38,69.52
				c10.5,11.52,21.01,23.04,31.51,34.56c9.73,10.67,19.32,21.52,29.53,31.74c4.78,4.78,9.71,9.41,14.89,13.76
				c2.59,2.18,5.25,4.28,7.96,6.31c2.66,1.99,5.45,4.36,8.47,5.75c3.26,1.5,7.01,2.38,10.43,3.49c3.83,1.24,7.68,2.45,11.54,3.61
				c7.21,2.17,14.47,4.2,21.77,6.06c53.91,13.76,110.72,18.4,165.42,6.37c13.16-2.89,26.11-6.73,38.72-11.48
				c6.35-2.39,12.86-4.84,18.92-7.9c6.03-3.04,11.56-7.89,16.72-12.22c10.61-8.91,20.17-18.97,29.52-29.17
				c10.46-11.4,20.86-22.86,31.28-34.3c21.29-23.34,42.58-46.69,63.86-70.03c18.06-19.81,41.3-40.96,44.1-69.24
				c0.66-6.64-0.13-13.35-2.39-19.63c-1.3-3.61-7.1-2.05-5.79,1.6c9.89,27.47-12.23,52.37-29.33,71.14
				c-20.41,22.4-40.84,44.79-61.26,67.18c-19.53,21.41-38.52,43.53-58.97,64.07c-4.77,4.79-9.69,9.43-14.86,13.79
				c-5.16,4.35-10.75,9.29-16.93,12.09c-11.98,5.44-24.37,10-37.01,13.68c-51.71,15.03-106.43,14.05-158.85,3.25
				c-14.02-2.89-27.9-6.44-41.62-10.53c-7.13-2.12-14.41-4.16-21.37-6.82c-6.22-2.38-11.91-7.74-16.94-12.02
				c-10.14-8.61-19.32-18.27-28.31-28.06c-10.02-10.92-19.98-21.9-29.97-32.85c-20.45-22.42-40.9-44.85-61.34-67.27
				c-9.68-10.62-19.76-21.01-28.75-32.23c-8.43-10.53-15.94-22.69-17.68-36.32c-0.83-6.49-0.16-12.94,2.05-19.09
				C313.31,718.14,307.51,716.57,306.21,720.18L306.21,720.18z"/>
		</g>
	</g>
	<g>
		<g>
			<path class="st4" d="M594.18,553.34c4.72-0.32,10.33-3.77,14.45-0.13c1.9,1.68,3.59,3.34,6.15,3.93c2.48,0.57,5.02,0.3,7.53,0.14
				c2.61-0.17,4.91-0.03,7.37,0.91c1.22,0.47,2.45,0.91,3.77,0.97c1.4,0.06,2.77-0.35,4.08-0.78c5.6-1.81,11.3-1.25,17.09-1.34
				c5.62-0.09,11.44-1.09,15.76-4.95c1.44-1.29-0.69-3.41-2.12-2.12c-3.69,3.3-8.87,3.99-13.64,4.07c-5.54,0.09-11.2-0.52-16.6,1.04
				c-1.21,0.35-2.42,0.9-3.68,1.05c-1.43,0.16-2.74-0.41-4.05-0.91c-2.33-0.88-4.67-1.11-7.15-0.99c-2.36,0.12-4.83,0.53-7.18,0.1
				c-2.58-0.47-4-2.32-5.95-3.86c-4.96-3.92-10.38-0.49-15.82-0.13C592.26,550.47,592.25,553.47,594.18,553.34L594.18,553.34z"/>
		</g>
	</g>
	<g>
		<g>
			<path class="st4" d="M619.21,585.05c1.33-0.17,2.52-0.57,3.76-1.05c1.22-0.47,2.47-0.98,3.79-0.73c1.46,0.28,2.85,0.93,4.29,1.27
				c1.57,0.37,3.16,0.62,4.75,0.86c5.15,0.78,12.07,1.3,14.77-4.34c0.83-1.73-1.76-3.26-2.59-1.51c-2.44,5.09-9.78,3.3-14.11,2.52
				c-1.36-0.25-2.7-0.54-4.02-0.96c-1.24-0.4-2.44-0.87-3.75-0.91c-2.49-0.06-4.5,1.56-6.9,1.86
				C617.32,582.29,617.3,585.29,619.21,585.05L619.21,585.05z"/>
		</g>
	</g>
	<g>
		<g>
			<path class="st4" d="M603.51,604.04c2.5,0.84,4.92-0.1,7.12-1.3c2.07-1.13,4.49-3.03,7-2.47c1.56,0.35,2.88,1.44,4.29,2.14
				c1.49,0.75,3.08,1.32,4.72,1.65c3.37,0.69,6.86,0.51,10.14-0.56c1.83-0.6,1.05-3.49-0.8-2.89c-3.11,1.01-6.4,1.16-9.57,0.32
				c-1.64-0.44-3.12-1.15-4.58-2c-1.31-0.76-2.66-1.49-4.18-1.7c-2.52-0.34-4.84,0.83-6.97,2.03c-1.91,1.08-4.08,2.64-6.37,1.87
				C602.48,600.53,601.69,603.42,603.51,604.04L603.51,604.04z"/>
		</g>
	</g>
	<g>
		<g>
			<path class="st4" d="M651.61,601.27c3.83-0.58,7.44,1.81,11.06,2.63c3.28,0.75,6.83,0.62,9.44-1.74c1.44-1.3-0.69-3.41-2.12-2.12
				c-2.21,2-5.66,1.32-8.22,0.49c-3.64-1.18-7.04-2.75-10.96-2.16c-0.8,0.12-1.25,1.13-1.05,1.85
				C650,601.08,650.8,601.39,651.61,601.27L651.61,601.27z"/>
		</g>
	</g>
</g>
<g id="ojo">
	<g>
		<path class="st2" d="M532.15,556.68c-26.38-5.35-55.27-14.38-85.94-25.84c-2,1.58-3.92,3.27-5.76,5.05
			c-14.86,14.43-24.16,34.79-25.24,55.48c-1.09,20.88,6.72,41.05,23.57,53.87c17.08,12.99,38.93,14.99,59.62,12.63
			c12.32-1.41,22.85-6.28,30.93-15.93c6.28-7.51,9.8-16.82,11.12-26.45C543.15,595.69,537.9,575.47,532.15,556.68"/>
	</g>
	<g>
		<g>
			<path d="M477.53,693.64c-16.56-0.02-33.08-3.93-47.12-12.91c-12.37-7.91-22.09-19.38-28.5-32.54
				c-6.47-13.28-9.52-28.13-9.45-42.87c0.08-15.16,3.47-30.35,10.09-44c6.92-14.27,17.3-26.77,30.25-35.94
				c1.69-1.2,3.41-2.33,5.17-3.42c-0.68-0.18-1.37-0.36-2.05-0.54c2.45,5.37,8.35,9.01,13.27,11.82
				c7.76,4.43,16.16,7.76,24.57,10.72c9.58,3.37,19.35,6.2,29.21,8.62c9.06,2.23,18.22,4.15,27.46,5.49
				c6.33,0.92,12.99,1.92,19.41,1.3c0.59-0.06,1.17-0.13,1.75-0.23c1.9-0.32,1.09-3.21-0.8-2.89c-0.11,0.02-0.21,0.04-0.32,0.05
				c-0.29,0.04,0.25-0.03-0.05,0.01c-0.28,0.03-0.56,0.06-0.83,0.09c-0.57,0.05-1.15,0.08-1.72,0.1c-1.33,0.04-2.66,0.02-3.99-0.03
				c-3.41-0.14-6.82-0.5-10.21-0.94c-8.84-1.15-17.6-2.92-26.27-4.96c-9.71-2.28-19.34-4.95-28.81-8.11
				c-8.52-2.84-16.98-6.04-24.95-10.2c-3.13-1.64-6.21-3.43-9.03-5.55c-1.97-1.48-4.09-3.44-5.31-5.35
				c-0.29-0.46-0.55-0.94-0.78-1.43c-0.33-0.73-1.42-0.93-2.05-0.54c-14.08,8.7-25.79,20.91-33.86,35.37
				c-7.68,13.77-12.05,29.29-12.96,45.01c-0.88,15.24,1.51,30.78,7.4,44.88c5.85,14.01,15.1,26.44,27.31,35.54
				c13.42,10,29.76,15.19,46.37,16.26c2.27,0.14,4.54,0.21,6.81,0.21C479.46,696.64,479.46,693.64,477.53,693.64L477.53,693.64z"/>
		</g>
	</g>
	<path class="st5" d="M412.85,456.09c24.47-0.41,46.93,29.29,81.35,47.19c34.42,17.91,56.45,17.21,63.22,17.13
		c8.1-0.54,11.62,2.12,7.11,10.42"/>
	<path class="st5" d="M849.85,456.09c-24.47-0.41-46.93,29.29-81.35,47.19c-34.42,17.91-56.45,17.21-63.22,17.13
		c-8.1-0.54-11.62,2.12-7.11,10.42"/>
	<path class="st6" d="M455.23,532.52c-1.73,1.82-3.38,3.72-4.94,5.7c-11.58,14.74-17.94,33.83-16.69,52.61
		c1.12,16.69,8.42,31.36,23.28,39.59c12.91,7.14,29.75,13.28,44.13,6.65c12.06-5.56,17.8-18.59,19.75-31.04
		c2.81-17.87-0.69-36.53-6.48-53.46"/>
	<path class="st2" d="M466.54,545.62c0,0,3.11,0.96,1.89,2.81s-19.55,19.06-21.08,19.6c0,0-2.12,0.33-3.78-0.24
		c-1.18-1.07-0.29-3.64-0.29-3.64c1.48-10.58,8.35-16.32,19.43-18.29C463.95,545.48,465.14,545.29,466.54,545.62z"/>
	<circle class="st2" cx="442.96" cy="573.11" r="3.18"/>
	<path class="st3" d="M825.52,522.41l16.3,13.66l12.18,15.83l10.13,22.17l3.67,15.66l1.24,21.54V622l-3.76,11.4l-6.11,15.97
		l-11.89,20.2l-21.75,15.29c-77.68,34-144.53-29.43-114.11-127.2c40.73-0.97,78.03-7.65,111.35-37.01"/>
	<g>
		<path class="st2" d="M727.83,556.68c26.38-5.35,55.27-14.38,85.94-25.84c2,1.58,3.92,3.27,5.76,5.05
			c14.86,14.43,24.16,34.79,25.24,55.48c1.09,20.88-6.72,41.05-23.57,53.87c-17.08,12.99-38.93,14.99-59.62,12.63
			c-12.32-1.41-22.85-6.28-30.93-15.93c-6.28-7.51-9.8-16.82-11.12-26.45C716.83,595.69,722.09,575.47,727.83,556.68"/>
	</g>
	<g>
		<g>
			<path d="M782.46,696.64c17.06-0.02,34.17-4.07,48.63-13.32c12.78-8.18,22.95-20,29.58-33.62c6.7-13.76,9.93-29.1,9.86-44.38
				c-0.08-15.71-3.64-31.38-10.5-45.52c-7.15-14.74-17.96-27.55-31.33-37.02c-1.69-1.2-3.41-2.33-5.17-3.42
				c-0.64-0.39-1.72-0.19-2.05,0.54c-1.04,2.27-2.53,3.8-4.48,5.49c-2.42,2.09-5.25,3.87-8.09,5.47
				c-7.6,4.29-15.79,7.52-24.01,10.39c-9.41,3.29-19,6.05-28.67,8.43c-8.95,2.2-17.99,4.1-27.11,5.44
				c-6.11,0.9-12.52,1.81-18.71,1.26c-0.26-0.02-0.52-0.05-0.78-0.08c-0.31-0.04,0.03,0-0.05-0.01c-0.13-0.02-0.25-0.04-0.37-0.06
				c-1.89-0.31-2.7,2.58-0.8,2.89c5.86,0.97,12.09,0.14,17.92-0.62c9.11-1.19,18.13-2.97,27.07-5.06c9.9-2.32,19.71-5.05,29.35-8.29
				c8.68-2.92,17.32-6.21,25.43-10.48c5.49-2.89,11.69-6.44,15.11-11.82c0.29-0.46,0.55-0.94,0.78-1.43
				c-0.68,0.18-1.37,0.36-2.05,0.54c13.66,8.44,24.96,20.28,32.78,34.29c7.42,13.29,11.67,28.31,12.55,43.5
				c0.86,14.85-1.44,29.88-7.11,43.65c-5.52,13.4-14.46,25.5-26.11,34.19c-13,9.69-28.75,14.82-44.85,15.85
				c-2.27,0.14-4.54,0.21-6.81,0.21C780.53,693.64,780.53,696.64,782.46,696.64L782.46,696.64z"/>
		</g>
	</g>
	<path class="st6" d="M804.76,532.52c1.73,1.82,3.38,3.72,4.94,5.7c11.58,14.74,17.94,33.83,16.69,52.61
		c-1.12,16.69-8.42,31.36-23.28,39.59c-12.91,7.14-29.75,13.28-44.13,6.65c-12.06-5.56-17.8-18.59-19.75-31.04
		c-2.81-17.87,0.69-36.53,6.48-53.46"/>
	<path class="st2" d="M770.85,555.54c0,0,3.11,0.96,1.89,2.81s-19.55,19.06-21.08,19.6c0,0-2.12,0.33-3.78-0.24
		c-1.18-1.07-0.29-3.64-0.29-3.64c1.48-10.58,8.35-16.32,19.43-18.29C768.26,555.41,769.45,555.22,770.85,555.54z"/>
	<circle class="st2" cx="747.27" cy="583.03" r="3.18"/>
</g>
<g id="nariz">
	<g>
		<g>
			<path d="M578.15,638.38c-9.38,10.66-16.96,22.71-25.41,34.09c-4.22,5.69-8.7,11.22-13.72,16.24c-4.65,4.64-9.82,8.7-15.24,12.41
				c-20.41,13.98-44.68,23.37-61.63,41.96c-17.36,19.04-22.78,46.62-16.39,71.31c3.29,12.71,9.72,24.33,18.79,33.82
				c5.39,5.64,11.47,10.55,17.63,15.31c6.34,4.9,12.74,9.72,19.18,14.48c26.42,19.54,53.66,37.98,81.61,55.26
				c3.37,2.09,6.76,4.15,10.15,6.21c1.66,1,3.17-1.59,1.51-2.59c-27.63-16.71-54.59-34.54-80.78-53.44
				c-12.91-9.32-25.99-18.65-38.15-28.94c-5.59-4.73-10.94-9.87-15.27-15.79c-3.75-5.12-6.81-10.76-9.08-16.69
				c-8.97-23.41-6.44-51.44,8.73-71.76c7.28-9.75,17.18-17.19,27.37-23.65c10.49-6.65,21.52-12.42,32.02-19.06
				c5.24-3.32,10.35-6.86,15.15-10.79c5.34-4.38,10.09-9.4,14.47-14.73c8.83-10.74,16.19-22.56,24.66-33.57
				c2.09-2.72,4.26-5.37,6.53-7.95C581.54,639.06,579.43,636.93,578.15,638.38L578.15,638.38z"/>
		</g>
	</g>
	<g>
		<g>
			<path d="M676.8,638.32c9.41,10.68,17.39,22.49,26.22,33.63c4.34,5.47,8.89,10.79,13.89,15.66c4.67,4.54,9.78,8.6,15.09,12.35
				c20.14,14.23,43.96,24.2,60.69,42.83c16.88,18.81,22.06,45.74,15.38,69.9c-3.5,12.66-10.23,23.89-19.56,33.12
				c-5.45,5.39-11.49,10.15-17.57,14.81c-6.29,4.83-12.64,9.59-19.03,14.29c-25.71,18.91-52.18,36.79-79.33,53.58
				c-3.37,2.09-6.76,4.15-10.15,6.21c-1.65,1-0.14,3.59,1.51,2.59c27.8-16.81,54.91-34.75,81.24-53.78
				c12.89-9.31,25.93-18.65,38.09-28.9c5.65-4.77,10.97-9.94,15.42-15.86c3.8-5.06,6.86-10.62,9.26-16.47
				c9.58-23.34,7.72-51.63-6.32-72.8c-14.06-21.22-37.85-32.6-58.71-45.83c-5.36-3.4-10.65-6.96-15.63-10.91
				c-5.48-4.34-10.47-9.22-15.11-14.45c-9.56-10.79-17.62-22.78-26.58-34.06c-2.17-2.73-4.39-5.41-6.7-8.03
				C677.64,634.75,675.53,636.88,676.8,638.32L676.8,638.32z"/>
		</g>
	</g>
	<g>
		<path d="M662.64,934.81c-0.31,0.22-1.1-0.15-1.49-0.22c-0.69-0.12-1.35-0.11-2.02,0.11c-0.61,0.2-1.13,0.57-1.66,0.92
			c-0.25,0.16-0.58,0.29-0.82,0.45c-0.07,0.05-0.13,0.06-0.17,0.05c0.02,0.04,0.03,0.09,0.05,0.16c-0.02-0.06-0.05-0.1-0.07-0.16
			c-0.07-0.03-0.08-0.12-0.04-0.09c-0.44-0.87-1.68-1.18-2.4-0.42c-0.38,0.41-1.13,0.95-1.39,1.46c-0.03-0.03-0.05-0.05-0.06-0.07
			c-0.73-0.91-1.56-1.56-2.78-1.46c-0.98,0.08-1.76,0.68-2.56,1.21c-0.89,0.59-0.82,0.64-1.37-0.3c-0.45-0.77-0.91-1.55-1.74-1.94
			c-0.5-0.24-1.04-0.31-1.59-0.2c-0.19,0.04-0.87,0.23-1.27,0.44c-0.06-0.12-0.13-0.24-0.19-0.33c-0.27-0.46-0.62-0.83-1.11-1.06
			c-1.32-0.64-2.39,0.23-3.34,1.07c-1.07,0.95-2.25,1.76-3.52,2.44c-0.44,0.24-1.34,0.86-1.9,0.76c-0.41-0.08-0.84-0.74-1.12-1.01
			c-0.76-0.73-1.64-1.27-2.73-1.21c-1.19,0.07-2,0.84-2.89,1.52c-0.14,0.1-0.35,0.18-0.44,0.25l0,0c-0.08-0.19-0.13-0.39-0.19-0.58
			c-0.25-0.85-0.49-1.75-1.14-2.4c-0.74-0.73-1.81-0.91-2.78-0.6c-0.49,0.15-0.9,0.45-1.31,0.73c-0.11,0.08-0.35,0.3-0.54,0.4
			c0-0.03-0.03-0.08-0.1-0.17c-0.87-1.12-1.6-2.07-3.18-1.92c-1.46,0.14-2.4,1.2-3.17,2.34c-0.83,1.23-1.86,2.22-3.47,2.09
			c-1.45-0.12-2.58-1.18-2.98-2.54c-0.3-0.99-1.32-1.31-2.2-0.9c-2.7,1.26-5.42,2.47-8.16,3.63c-0.75,0.32-1.27,0.99-1.05,1.85
			c0.19,0.71,1.1,1.36,1.85,1.05c2.48-1.04,4.95-2.13,7.39-3.25c1.15,1.91,3.19,3.23,5.52,3.17c1.22-0.03,2.45-0.41,3.46-1.08
			c0.56-0.38,1.05-0.83,1.47-1.36c0.33-0.42,0.92-1.84,1.48-1.94c0.35-0.07,0.38,0.29,0.63,0.64c0.31,0.43,0.65,0.84,1.12,1.11
			c1.2,0.69,2.43,0.21,3.46-0.5c0.19-0.13,0.38-0.28,0.58-0.39c0.12,0.27,0.17,0.62,0.24,0.87c0.29,0.97,0.69,1.97,1.61,2.51
			c0.98,0.58,2.14,0.44,3.08-0.14c0.55-0.34,1.42-1.43,1.98-1.33c0.38,0.07,0.9,0.88,1.18,1.14c0.4,0.36,0.85,0.68,1.36,0.86
			c1.5,0.5,2.95-0.19,4.27-0.88c1.31-0.68,2.53-1.51,3.67-2.45c0.07-0.06,0.41-0.31,0.67-0.52c0.24,0.44,0.6,0.86,0.98,1.1
			c0.85,0.55,2.34,0.47,3.08-0.3c0.02-0.02,0.04-0.04,0.06-0.06c0.09,0.13,0.17,0.27,0.25,0.4c0.28,0.48,0.55,0.99,0.93,1.41
			c0.81,0.9,1.98,1.29,3.16,0.96c0.59-0.17,1.12-0.51,1.63-0.84c0.23-0.15,0.73-0.63,1.05-0.71c0.03,0.01,0.07,0.03,0.12,0.05
			c0.27,0.11,0.52,0.7,0.71,0.92c0.4,0.43,0.86,0.77,1.45,0.88c1.24,0.23,2.2-0.66,3.02-1.59c0.96,0.39,2.15,0.32,3.13-0.19
			c0.98-0.51,1.54-1.26,2.7-0.97c1.08,0.27,2.16,0.45,3.12-0.24C665.71,936.29,664.22,933.68,662.64,934.81z"/>
		<path d="M656.48,936.11c-0.02-0.06-0.04-0.08-0.06-0.09c0.01,0.03,0.03,0.06,0.04,0.09C656.47,936.11,656.47,936.11,656.48,936.11
			z"/>
	</g>
	<g>
		<g>
			<path d="M557.7,698.89c-7.86,12.8-17.44,24.51-28.44,34.74c-9.57,8.89-21.18,16.24-28.44,27.34c-3.3,5.05-5.35,10.95-5.05,17.03
				c0.35,6.9,3.57,13.14,7.84,18.43c4.39,5.45,9.9,9.96,15.59,13.99c5.86,4.15,12.14,7.71,18.71,10.62
				c13.19,5.86,27.46,9.2,41.9,9.63c1.81,0.05,3.63,0.06,5.44,0.02c1.93-0.04,1.93-3.04,0-3c-14.05,0.28-28.05-2.24-41.16-7.31
				c-12.76-4.93-25.25-12.36-34.87-22.17c-4.58-4.67-8.58-10.26-9.99-16.75c-1.29-5.94,0.08-11.98,3.08-17.19
				c6.29-10.92,17.46-18.1,26.66-26.33c10.84-9.69,20.41-20.81,28.41-32.95c1-1.51,1.97-3.04,2.91-4.59
				C561.3,698.75,558.71,697.24,557.7,698.89L557.7,698.89z"/>
		</g>
	</g>
	<g>
		<g>
			<path d="M700.03,695.9c7.61,12.39,16.81,23.81,27.33,33.85c4.86,4.64,10.09,8.82,15.21,13.17c4.68,3.99,9.37,8.18,13.03,13.16
				c3.43,4.66,5.91,10.05,5.98,15.92c0.08,6.68-2.98,12.87-7.11,17.96c-4.3,5.29-9.64,9.7-15.2,13.61
				c-5.71,4.01-11.81,7.45-18.17,10.3c-12.8,5.72-26.77,8.93-40.79,9.31c-1.74,0.05-3.49,0.05-5.23,0.01c-1.93-0.04-1.93,2.96,0,3
				c14.43,0.29,28.9-2.31,42.35-7.57c13.16-5.14,26.03-12.76,35.94-22.94c4.69-4.81,8.8-10.57,10.44-17.18
				c1.54-6.19,0.63-12.57-2.15-18.26c-5.63-11.55-16.96-19.15-26.4-27.34c-11.34-9.84-21.34-21.22-29.61-33.75
				c-1.04-1.57-2.05-3.16-3.03-4.77C701.61,692.74,699.02,694.24,700.03,695.9L700.03,695.9z"/>
		</g>
	</g>
	<g>
		<path d="M605.29,802.53c4.1-5.71,6.2-12.65,7.06-19.63c0.86-6.97,1.43-14.14,0.17-21.05c-6.55-35.95-35.94-58.42-73.09-20.42
			c-36.72,34.14-29.58,68.42,49.29,71.96c6.3-0.75,12.17-4.54,15.47-9.96"/>
		<g>
			<path d="M606.59,803.28c4.07-5.76,6.22-12.6,7.15-19.53c1.03-7.62,1.55-15.38,0.1-22.98c-1.92-10.04-5.77-19.99-12.33-27.94
				c-5.69-6.9-13.61-11.76-22.63-12.53c-10.86-0.92-21.33,4.16-29.79,10.55c-5.11,3.86-9.72,8.35-14.22,12.89
				c-3.04,3.07-5.89,6.32-8.48,9.78c-4.16,5.56-7.76,11.89-9.17,18.75c-1.21,5.85-0.66,11.88,2.12,17.22
				c3.12,5.99,8.63,10.42,14.46,13.61c8.44,4.62,17.94,7.16,27.35,8.87c6.33,1.15,12.72,1.9,19.13,2.4
				c3.49,0.27,7.25,0.89,10.7,0.14c2.96-0.64,5.83-1.94,8.29-3.71c2.49-1.8,4.58-4.02,6.2-6.63c1.02-1.65-1.57-3.15-2.59-1.51
				c-1.61,2.6-3.79,4.79-6.39,6.4c-2.37,1.47-5.4,2.81-8.24,2.8c-3.35-0.01-6.75-0.38-10.08-0.67c-3.15-0.28-6.29-0.61-9.42-1.04
				c-9.82-1.35-19.81-3.41-28.92-7.43c-5.98-2.64-12.01-6.28-15.91-11.58c-3.22-4.37-4.64-9.36-4.27-14.72
				c0.41-5.95,3.04-11.82,6.25-16.92c4.55-7.23,10.58-13.19,16.68-19.1c8.14-7.89,18.19-15.33,29.72-16.94
				c8.26-1.15,16.41,1.44,22.67,6.91c6.96,6.08,11.4,14.63,14.05,23.37c1.85,6.07,2.87,12.24,2.7,18.6
				c-0.18,6.91-0.91,14.08-3.21,20.64c-1.1,3.13-2.61,6.07-4.52,8.78C602.88,803.35,605.48,804.85,606.59,803.28L606.59,803.28z"/>
		</g>
	</g>
	<g>
		<path d="M656.57,802.53c-4.1-5.71-6.2-12.65-7.06-19.63c-0.86-6.97-1.43-14.14-0.17-21.05c6.55-35.95,35.94-58.42,73.09-20.42
			c36.72,34.14,29.58,68.42-49.29,71.96c-6.3-0.75-12.17-4.54-15.47-9.96"/>
		<g>
			<path d="M657.87,801.77c-3.94-5.57-6-12.15-6.86-18.87c-0.93-7.24-1.42-14.62,0-21.83c1.86-9.42,5.42-18.89,11.64-26.33
				c5.27-6.3,12.52-10.92,20.86-11.47c10.41-0.69,20.25,4.38,28.26,10.58c4.75,3.68,9.06,7.94,13.27,12.21
				c2.84,2.88,5.55,5.92,7.96,9.17c3.89,5.22,7.24,11.06,8.65,17.48c1.11,5.09,0.71,10.47-1.66,15.11
				c-2.8,5.48-7.73,9.49-13.05,12.46c-7.89,4.41-16.82,6.85-25.65,8.54c-5.96,1.14-11.99,1.9-18.04,2.42
				c-1.58,0.13-3.16,0.25-4.73,0.36c-1.76,0.12-3.63,0.4-5.39,0.3c-2.82-0.17-5.76-1.52-8.1-3.02c-2.46-1.59-4.52-3.71-6.07-6.19
				c-1.02-1.64-3.61-0.13-2.59,1.51c3.28,5.29,8.72,9.2,14.86,10.41c3.44,0.68,7.27,0.02,10.75-0.26c3.27-0.26,6.53-0.59,9.78-1.01
				c10.58-1.35,21.2-3.49,31.04-7.7c6.66-2.85,13.08-6.83,17.5-12.68c3.52-4.66,5.26-10.43,4.92-16.26
				c-0.39-6.63-3.07-12.93-6.55-18.5c-4.86-7.78-11.35-14.28-17.96-20.57c-8.63-8.22-19.21-15.67-31.33-17.17
				c-9.03-1.12-17.8,1.86-24.61,7.81c-7.33,6.41-12.03,15.49-14.83,24.69c-1.92,6.31-2.98,12.79-2.81,19.4
				c0.19,7.29,0.97,14.95,3.46,21.84c1.17,3.22,2.7,6.29,4.68,9.09C656.38,804.85,658.99,803.35,657.87,801.77L657.87,801.77z"/>
		</g>
	</g>
</g>
<g id="labios">
	<path class="st7" d="M546.21,860.5c-4.79-13.86,0-19.43,14.36-16.71c27.89,8.57,51.82,10.81,70.71,10.5"/>
	<path class="st7" d="M716.36,860.5c4.79-13.86,0-19.43-14.36-16.71c-27.89,8.57-51.82,10.81-70.71,10.5"/>
	<path class="st7" d="M555.86,893.29c3.94-3.89,10.29-5.43,17.71,2.29c12.56,11.99,32.05,16.52,57.71,16.25"/>
	<path class="st7" d="M689,895.57c-12.56,11.99-32.05,16.52-57.71,16.25"/>
	<path class="st7" d="M706.71,893.29c-3.94-3.89-10.29-5.43-17.71,2.29"/>
	<g>
		<g>
			<path class="st4" d="M551.54,845.13c6.81,14.08,5.05,30.13,5.25,45.26c0.03,1.93,3.03,1.93,3,0
				c-0.21-15.75,1.42-32.14-5.66-46.78C553.29,841.88,550.7,843.4,551.54,845.13L551.54,845.13z"/>
		</g>
	</g>
	<g>
		<g>
			<path class="st4" d="M708.17,843.3c-7.08,14.64-5.45,31.02-5.66,46.78c-0.03,1.93,2.97,1.93,3,0c0.2-15.14-1.56-31.19,5.25-45.26
				C711.6,843.08,709.01,841.56,708.17,843.3L708.17,843.3z"/>
		</g>
	</g>
	<g>
		<g>
			<path class="st4" d="M612.48,881.76c1.63-1.67,3.4-3.2,5.33-4.53c0.66-0.45,1.11-0.75,1.71,0.02c0.28,0.36,0.42,0.86,0.67,1.25
				c0.43,0.67,0.95,1.28,1.6,1.75c3.57,2.59,7.03-1.03,9-3.76c-0.43,0-0.86,0-1.3,0c0.79,1.16,1.58,2.33,2.38,3.49
				c0.49,0.71,1.05,1.61,2.03,1.6c0.88-0.01,1.4-0.77,1.84-1.43c0.85-1.3,1.68-2.61,2.52-3.92c-0.39,0.05-0.79,0.1-1.18,0.15
				c3.32,2.93,8.17,3.83,12.28,2.11c0.33-0.14,1.26-0.79,1.56-0.66c0.23,0.1,0.38,0.94,0.48,1.17c0.25,0.62,0.6,1.21,1.28,1.4
				c0.95,0.27,1.7-0.41,2.39-0.96c1.26-1.01,2.51-2.03,3.76-3.05c-0.43-0.18-0.85-0.35-1.28-0.53c0.23,2.09,0.82,4.01,1.83,5.86
				c0.46,0.85,1.76,0.09,1.3-0.76c-0.87-1.6-1.42-3.29-1.62-5.1c-0.08-0.67-0.75-0.96-1.28-0.53c-1,0.81-2.01,1.63-3.01,2.44
				c-0.34,0.27-1.3,1.34-1.78,1.08c-0.2-0.11-0.3-0.74-0.38-0.95c-0.51-1.33-1.41-1.96-2.79-1.29c-3.85,1.88-8.37,1.62-11.67-1.29
				c-0.37-0.33-0.91-0.27-1.18,0.15c-0.44,0.69-0.88,1.37-1.33,2.06c-0.42,0.65-0.99,2.06-1.77,2.07c-0.78,0.01-1.21-1.11-1.63-1.74
				c-0.49-0.71-0.97-1.42-1.46-2.13c-0.34-0.49-0.96-0.47-1.3,0c-1.27,1.77-3.11,4.27-5.65,3.82c-2.14-0.38-2.34-2.55-3.6-3.87
				c-1.3-1.37-2.76-0.07-3.94,0.78c-1.76,1.27-3.39,2.69-4.9,4.24C610.75,881.39,611.81,882.45,612.48,881.76L612.48,881.76z"/>
		</g>
	</g>
</g>
<g id="fruncido">
	<path class="st8" d="M521.97,202c-73.35,37.98-126.79,87.15-139.98,158.92c0,0-4.19,12.37,2.44,17.22
		c6.63,4.85,11.14-7.29,11.14-7.29C419.78,307.45,464.97,252.38,521.97,202z"/>
</g>
</svg>
